<svg width="96" height="98" viewBox="0 0 96 98" fill="none" xmlns="http://www.w3.org/2000/svg">
<path d="M94.6 19.3C94.1 18.6 93.3 18.2 92.5 18.2L26 17.7L22.4 2.2C22.1 1 21 0.2 19.7 0.1L3.39997 0C1.79997 0 0.599974 1.1 0.699974 2.7C0.699974 4.3 1.79997 5.5 3.39997 5.4L17.6 5.5L35.8 81C36.1 82.2 37.2 83 38.5 83.1L77.9 83.5C78.2 83.4 78.3 83.5 78.6 83.5C79.8 83.2 80.6 82.1 80.6 80.9C80.6 79.3 79.5 78.1 77.9 78.2L40.6 77.9L37.8 66.7L82.9 62C84 61.9 84.9 61.1 85.2 60L95.1 22C95.2 20.9 95 19.9 94.6 19.3ZM27.3 23.2L42.8 23.4L42.6 39.5L31 39.4L27.3 23.2ZM42.5 60.4L36.4 61.1L32.4 44.7L42.5 44.8V60.4ZM64.4 58L48 59.8L48.1 44.9L64.6 45L64.4 58ZM48.2 39.4L48.4 23.3L64.6 23.5L64.5 39.5L48.2 39.4ZM80.4 56.4L69.8 57.2L69.9 45H83.2L80.4 56.4ZM84.7 39.7L70.1 39.6L70.3 23.5L89 23.7L84.7 39.7Z" fill="white"/>
<path d="M43.5785 91.318C43.6053 88.3356 41.2093 85.8963 38.227 85.8695C35.2446 85.8428 32.8053 88.2388 32.7785 91.2211C32.7518 94.2034 35.1478 96.6428 38.1301 96.6695C41.1124 96.6963 43.5518 94.3003 43.5785 91.318Z" fill="white"/>
<path d="M83.0528 91.6344C83.0796 88.652 80.6836 86.2127 77.7013 86.1859C74.7189 86.1592 72.2796 88.5552 72.2528 91.5375C72.2261 94.5198 74.6221 96.9592 77.6044 96.9859C80.5867 97.0127 83.0261 94.6167 83.0528 91.6344Z" fill="white"/>
</svg>
