<svg width="42" height="42" viewBox="0 0 42 42" fill="none" xmlns="http://www.w3.org/2000/svg">
<rect width="42" height="42" rx="9" fill="#DD8604"/>
<ellipse cx="20.9664" cy="21" rx="20.9664" ry="21" fill="white"/>
<path d="M42 21.1284C42 9.45949 32.5981 0 21.0001 0C9.40206 0 0 6.9006 0 21.1284C0 31.6741 7.67943 40.4149 17.7188 42V27.2358H12.3868V21.1284H17.7188V16.4736C17.7188 11.1783 20.854 8.2533 25.6507 8.2533C27.9483 8.2533 30.3516 8.66596 30.3516 8.66596V13.8655H27.7037C25.0949 13.8655 24.2812 15.4941 24.2812 17.165V21.1284H30.1055L29.1744 27.2358H24.2812V42C34.3207 40.4149 42 31.6741 42 21.1284Z" fill="#DD8604"/>
</svg>
