<svg width="42" height="42" viewBox="0 0 42 42" fill="none" xmlns="http://www.w3.org/2000/svg">
<rect width="42" height="42" rx="9" fill="#DD8604"/>
<circle cx="21" cy="21" r="21" fill="#DD8604"/>
<path fill-rule="evenodd" clip-rule="evenodd" d="M21 6.99994C17.1967 6.99994 16.7218 7.01744 15.2285 7.08394C13.7375 7.15394 12.7225 7.38844 11.83 7.73494C10.9095 8.09194 10.1278 8.57144 9.34968 9.34961C8.57153 10.1278 8.09085 10.9083 7.735 11.8299C7.3885 12.7224 7.15282 13.7374 7.084 15.2284C7.014 16.7218 7 17.1966 7 20.9999C7 24.8033 7.0175 25.2781 7.084 26.7714C7.154 28.2613 7.3885 29.2774 7.735 30.1699C8.092 31.0893 8.5715 31.8721 9.34968 32.6503C10.1279 33.4273 10.9084 33.9091 11.83 34.2649C12.7237 34.6103 13.7387 34.8471 15.2285 34.9159C16.7218 34.9859 17.1967 34.9999 21 34.9999C24.8033 34.9999 25.2782 34.9824 26.7715 34.9159C28.2613 34.8459 29.2775 34.6103 30.17 34.2649C31.0893 33.9079 31.8722 33.4273 32.6503 32.6503C33.4273 31.8721 33.9091 31.0928 34.265 30.1699C34.6103 29.2774 34.8472 28.2613 34.916 26.7714C34.986 25.2781 35 24.8033 35 20.9999C35 17.1966 34.9825 16.7218 34.916 15.2284C34.846 13.7386 34.6103 12.7213 34.265 11.8299C33.908 10.9094 33.4273 10.1278 32.6503 9.34961C31.8721 8.57144 31.0928 8.09079 30.17 7.73494C29.2775 7.38844 28.2613 7.15276 26.7715 7.08394C25.2782 7.01394 24.8033 6.99994 21 6.99994ZM20.9999 9.51995C24.7367 9.51995 25.1824 9.53863 26.6582 9.60278C28.0232 9.66695 28.764 9.89328 29.2564 10.087C29.9121 10.3401 30.3764 10.6435 30.8687 11.1323C31.3575 11.6223 31.6609 12.0878 31.914 12.7435C32.1054 13.2358 32.334 13.9766 32.3959 15.3416C32.4624 16.8186 32.4775 17.262 32.4775 21C32.4775 24.738 32.46 25.1825 32.3912 26.6583C32.32 28.0233 32.0925 28.7641 31.9 29.2565C31.6387 29.9121 31.3412 30.3765 30.8512 30.8688C30.3624 31.3576 29.8899 31.661 29.2412 31.9141C28.7512 32.1054 27.9987 32.3341 26.6337 32.3959C25.1474 32.4624 24.7099 32.4776 20.9649 32.4776C17.2187 32.4776 16.7812 32.4601 15.2961 32.3913C13.9299 32.3201 13.1774 32.0926 12.6874 31.9001C12.0236 31.6388 11.5674 31.3413 11.0785 30.8513C10.5874 30.3625 10.2735 29.89 10.0285 29.2413C9.83605 28.7513 9.60973 27.9988 9.53855 26.6338L9.53573 26.555C9.48538 25.1463 9.46737 24.6425 9.46737 20.9825C9.46737 17.326 9.48533 16.8176 9.53554 15.3966L9.53855 15.3113C9.60973 13.9463 9.83605 13.195 10.0285 12.705C10.2735 12.04 10.5874 11.585 11.0785 11.0938C11.5674 10.605 12.0236 10.29 12.6874 10.0461C13.1774 9.85242 13.9136 9.62492 15.2786 9.55492L15.3459 9.55254C16.7802 9.50189 17.2607 9.48492 20.9474 9.48492L20.9999 9.51992V9.51995ZM13.8108 20.9999C13.8108 17.0309 17.0273 13.8109 20.9998 13.8109C24.9688 13.8109 28.1888 17.0274 28.1888 20.9999C28.1888 24.9689 24.9723 28.1889 20.9998 28.1889C17.0308 28.1889 13.8108 24.9724 13.8108 20.9999ZM21 25.6667C18.4216 25.6667 16.3333 23.5784 16.3333 21C16.3333 18.4217 18.4216 16.3334 21 16.3334C23.5783 16.3334 25.6666 18.4217 25.6666 21C25.6666 23.5784 23.5783 25.6667 21 25.6667ZM28.4737 15.2075C29.4 15.2075 30.1537 14.455 30.1537 13.5275C30.1537 12.6012 29.3989 11.8475 28.4737 11.8487C27.5474 11.8487 26.7937 12.6012 26.7937 13.5275C26.7937 14.4538 27.5462 15.2075 28.4737 15.2075Z" fill="white"/>
</svg>
