<svg width="1280" height="733" viewBox="0 0 1280 733" fill="none" xmlns="http://www.w3.org/2000/svg">
<path d="M316.6 2.00077C312.1 4.30077 311 5.50077 311 8.80077C311 13.3008 315.8 16.5008 326 18.9008C331.2 20.1008 340.5 22.8008 346.5 24.7008C356.4 28.0008 358.5 28.4008 368 28.3008C373.8 28.3008 381.4 27.7008 385 27.1008C388.6 26.5008 391.8 26.4008 392.3 26.9008C392.8 27.4008 404.6 66.4008 418.6 113.601C437.4 177.501 443.6 199.701 442.8 200.701C442.2 201.401 441 202.001 440.1 202.001C439.1 202.001 437.6 202.601 436.7 203.201C435.2 204.401 435.2 205.001 436.4 209.001C437.7 213.401 437.8 213.501 441.9 213.501C444.6 213.501 446.4 214.001 447 215.001C448.8 218.301 452.9 235.401 452.2 236.701C451.7 237.401 438 252.501 421.6 270.101C387.9 306.201 390.1 304.801 382.8 296.501C380.1 293.401 377.6 291.701 374.7 290.901C372.1 290.201 369.4 288.501 367.5 286.301C365.3 283.801 363 282.401 359 281.401C356 280.601 353.2 279.401 352.8 278.601C351.5 276.301 345.9 273.301 341.8 272.701C339.7 272.401 336.1 270.801 333.8 269.101C331 267.201 327.9 266.001 324.8 265.701C322.1 265.401 318.7 264.201 316.9 262.901C314.8 261.401 311.8 260.501 308.1 260.201C305 260.001 300.2 258.701 297.2 257.301C293.1 255.301 291.1 254.901 288 255.401C285.1 255.901 283.1 255.501 280.7 254.301C278.6 253.101 275 252.501 270 252.401C265.9 252.301 260.7 251.801 258.5 251.201C255.7 250.401 253.3 250.401 250.6 251.101C247.8 251.901 245.5 251.801 241.8 250.901C237.5 249.801 236.2 249.801 232.2 251.201C228.4 252.601 226.7 252.701 223.2 251.801C219.8 251.001 218.1 251.101 214.3 252.401C211.6 253.401 206.9 254.101 203.8 254.001C199.9 253.901 196.9 254.501 194.1 255.901C191.5 257.301 188.1 258.001 184.8 258.001C180.8 258.001 178.6 258.601 176 260.401C173.7 261.901 170.5 262.901 166.9 263.201C162.9 263.501 160.4 264.401 157.8 266.301C155.9 267.801 153.1 269.001 151.7 269.001C147.9 269.001 144.1 270.701 140.3 274.001C138.4 275.701 135.8 277.001 134.4 277.001C130.8 277.001 125.1 279.901 123.3 282.601C122.4 284.001 119.8 285.501 116.4 286.501C112.4 287.601 110.3 289.001 108 291.901C106 294.301 103.5 296.101 101 296.901C98.5 297.601 95.8 299.601 93.5 302.301C91.6 304.601 87.8 307.601 85.3 309.001C82.2 310.601 79.8 312.901 78.3 315.401C77.1 317.601 74.9 320.001 73.3 320.801C69.2 322.901 67 325.101 64.9 329.101C63.9 331.201 61.4 333.801 59.4 335.101C57 336.501 55 339.001 53.5 342.201C52.2 344.901 49.4 348.701 47.1 350.601C44.4 353.001 42.7 355.501 42 358.201C41.3 360.601 39.3 363.701 37 365.901C34.1 368.701 32.9 370.701 32.4 373.901C31.9 376.801 30.5 379.601 28 382.501C25.3 385.601 24.1 388.101 23.7 391.501C23.2 394.701 22 397.301 20.1 399.601C17.9 402.001 17 404.401 16.5 408.501C16.1 411.701 14.9 415.101 13.7 416.601C12.4 418.401 11.5 421.201 11.2 424.901C11 428.001 9.7 432.801 8.3 435.801C6.3 439.801 5.9 441.901 6.4 444.901C6.8 447.701 6.4 450.101 4.9 453.501C3.3 457.201 2.9 459.401 3.4 463.101C3.9 466.401 3.5 469.501 2.4 473.001C0.999997 477.301 0.899997 478.701 2 482.501C3.1 486.401 3 487.601 1.5 491.601C-0.100003 496.001 -0.100003 496.301 1.8 500.801C3.6 504.901 3.7 506.101 2.7 509.801C1.7 513.401 1.8 514.901 3.3 518.801C4.4 521.501 5.1 525.901 5 529.201C4.9 533.201 5.5 536.101 7 539.001C8.2 541.301 9 544.601 8.9 546.301C8.5 551.901 8.9 553.601 11.4 557.201C12.9 559.501 13.9 562.601 14.2 566.301C14.5 570.301 15.4 572.801 17.3 575.401C18.8 577.301 20 580.001 20 581.501C20 585.101 22.2 590.101 25.4 593.501C26.8 595.001 28 597.401 28 598.701C28 602.201 30.9 607.901 33.6 609.701C35 610.601 36.5 613.201 37.5 616.601C38.6 620.601 40 622.701 42.9 625.001C45.3 627.001 47.1 629.501 47.9 632.001C48.6 634.501 50.6 637.201 53.3 639.501C55.6 641.401 58.6 645.201 60 647.701C61.6 650.801 63.9 653.201 66.4 654.701C68.6 655.901 71 658.101 71.8 659.701C73.9 663.801 76.1 666.001 80.1 668.101C82.2 669.101 84.8 671.601 86.1 673.601C87.5 676.001 90 678.001 93.2 679.501C95.9 680.801 99.7 683.601 101.6 685.901C104 688.601 106.5 690.301 109.3 691.101C112 691.801 114.8 693.601 117.1 696.101C119.7 698.901 121.7 700.101 124.9 700.601C127.8 701.101 130.6 702.501 133.5 705.001C136.6 707.701 139 708.901 142.6 709.401C145.7 709.801 148.3 710.901 150 712.501C151.7 714.201 154.9 715.501 159.1 716.401C162.6 717.101 167.1 718.701 169 719.901C171.2 721.201 174.2 722.001 177 722.001C179.9 722.001 183.3 722.901 186.5 724.601C190.5 726.601 192.4 727.001 195.9 726.601C199.3 726.101 201.4 726.501 204.7 728.101C208.3 729.801 210.1 730.101 214.2 729.601C217.7 729.101 220.7 729.401 224.2 730.601C228.4 732.001 229.8 732.001 233.6 731.001C237.4 729.901 238.7 730.001 242.6 731.501C246.9 733.101 247.3 733.101 251.8 731.201C255.8 729.401 257.2 729.301 261.2 730.201C265.1 731.101 266.7 731.001 270.7 729.501C273.6 728.401 277.6 727.701 281 727.901C284.9 728.001 287.6 727.501 290.1 726.101C292.5 724.801 295.5 724.101 298.8 724.201C302.5 724.301 304.9 723.701 308.3 721.701C311.4 719.901 314.3 719.001 317.3 719.001C320.6 719.001 322.7 718.301 325.8 716.001C328.3 714.201 331.2 713.001 333 713.001C336.6 713.001 342.7 710.101 345.4 707.101C346.5 705.901 348.4 705.001 349.7 705.001C353.4 705.001 358.4 702.501 360.7 699.601C362 698.001 364.9 696.301 367.9 695.401C371.4 694.401 373.9 692.801 376.3 690.001C378.2 687.801 380.3 686.001 381 686.001C383.5 686.001 389.7 681.801 391.4 678.901C392.4 677.301 395.3 674.901 398 673.501C402.5 671.201 407 666.501 407 664.101C407 663.501 408.5 662.401 410.3 661.701C413.9 660.201 420 653.701 420 651.501C420 650.701 421.8 648.901 424 647.501C428.3 644.801 430.5 642.001 431.5 637.801C431.9 636.301 433.3 634.401 434.6 633.601C438.5 631.001 440.8 627.901 442.4 623.301C443.3 620.801 445.1 617.901 446.5 616.801C449.4 614.501 452 610.001 452 607.201C452 606.201 453.5 603.701 455.4 601.801C457.9 599.301 459.1 596.701 460.1 592.401C460.8 589.201 462.7 584.601 464.3 582.401C466.2 579.701 467.4 576.501 467.8 573.401C468.1 570.701 469.4 566.801 470.8 564.801C472.6 562.101 473.3 559.401 473.5 555.601C473.6 552.601 474.4 549.101 475.3 547.701C476.1 546.401 477.3 543.701 477.7 541.901C478.9 537.501 482 536.901 485.4 540.301C487.1 542.001 487.7 543.501 487.3 544.901C486.9 546.401 487.5 547.901 489 549.501C490.2 550.801 491 552.501 490.7 553.301C490.4 554.101 491.2 555.801 492.6 557.101C493.9 558.301 495 560.301 495 561.501C495 562.901 496 564.101 497.5 564.801C499 565.501 500 566.801 500 568.001C500 569.301 501 570.401 502.5 571.001C503.9 571.501 505.4 573.001 505.9 574.401C506.4 575.701 508 577.001 509.4 577.401C510.8 577.701 512.4 578.901 513 580.001C513.6 581.101 514.9 582.001 516 582.001C517.1 582.001 519 583.201 520.4 584.601C521.8 586.201 523.4 587.001 524.3 586.701C525.2 586.401 527 587.001 528.4 588.101C530 589.401 531.7 589.901 532.9 589.501C534.2 589.101 535.5 589.701 536.8 591.101C538.4 592.701 539.5 593.001 541.8 592.501C543.5 592.201 545.1 592.301 545.4 592.901C546.4 594.401 566.6 592.701 568.4 590.901C569 590.401 570.5 590.001 571.8 590.001C573.1 590.001 575.4 589.401 576.8 588.601C578.3 587.801 580.6 586.701 582 586.101C590.7 582.101 606 570.201 606 567.301C606 566.801 607.1 565.401 608.5 564.201C609.9 563.001 611 561.201 611 560.201C611 559.101 611.9 557.501 613 556.501C614.1 555.501 615 553.701 615 552.501C615 551.201 615.6 549.701 616.4 549.001C617.2 548.401 618 546.401 618.2 544.701C618.6 540.601 621.1 539.701 639.1 537.401C649.4 536.101 656.8 535.901 671 536.301C691.3 536.901 694 536.401 697.8 531.501C700.6 528.001 700.6 525.001 697.9 521.601C694.2 516.801 691.2 516.001 677.8 516.001C653.8 515.901 623.3 512.401 619.8 509.201C618.8 508.401 618 506.801 618 505.801C618 504.801 617.1 502.201 616 500.001C614.9 497.801 614 495.401 614 494.701C614 493.901 613.4 492.701 612.6 492.101C611.8 491.401 610.2 489.001 609.1 486.801C607.5 483.501 607.3 482.401 608.3 481.001C609 480.101 658.9 418.801 719.2 344.801L829 210.201L841.2 200.901C858.6 187.501 857 188.501 858.5 190.101C859.2 190.901 861.2 196.101 862.9 201.601C864.6 207.201 866.6 212.201 867.3 212.801C867.9 213.301 873 214.801 878.5 216.001C884 217.301 889.2 218.601 890 219.101C890.9 219.501 893.8 224.001 896.5 229.101C899.2 234.201 902.5 239.501 903.9 240.801C906.3 243.101 920 276.301 920 279.801C919.9 282.801 917.4 285.001 912.2 286.501C908.6 287.601 906.1 289.201 903.7 292.001C901.8 294.201 899.7 296.001 899 296.001C896.6 296.001 890.3 300.201 888.6 303.001C887.7 304.601 884.6 307.201 881.7 308.701C878.3 310.601 875.8 312.801 874.4 315.401C873.2 317.501 870.9 319.801 869.3 320.501C866.1 321.901 860 328.401 860 330.401C860 331.201 857.8 333.401 855.1 335.401C851.4 338.001 849.8 339.901 848.9 342.901C848.2 345.201 846.7 347.701 845.4 348.501C841.5 351.001 839.2 354.101 837.6 358.701C836.7 361.201 834.9 364.101 833.5 365.201C830.4 367.601 828 372.001 828 375.301C828 376.701 826.5 379.201 824.6 381.201C821.6 384.301 819 390.001 819 393.701C819 394.401 817.6 396.901 815.9 399.401C813.9 402.201 812.6 405.401 812.2 408.601C811.9 411.301 810.6 415.201 809.2 417.201C807.5 419.901 806.7 422.601 806.5 426.201C806.4 429.401 805.4 433.201 804 435.801C802.3 439.101 801.9 441.101 802.3 444.801C802.7 448.301 802.3 450.501 800.8 453.401C799.2 456.601 798.9 458.501 799.3 462.901C799.8 466.901 799.5 469.801 798.3 472.801C797 476.401 796.9 477.901 797.8 482.101C798.7 485.901 798.7 488.101 797.8 491.501C796.9 495.001 796.9 497.001 797.8 500.501C798.5 503.101 798.7 507.401 798.4 510.801C797.9 515.101 798.2 517.401 799.4 519.701C800.4 521.801 800.9 525.001 800.8 529.301C800.6 534.101 801 536.401 802.5 538.601C803.7 540.501 804.4 543.401 804.5 547.501C804.6 552.201 805.2 554.401 806.9 556.901C808.4 559.001 809.4 562.001 809.6 565.101C810 570.301 811.1 573.201 814 576.501C815 577.601 816 580.601 816.3 583.301C816.6 586.701 817.7 589.301 820.4 592.701C822.4 595.201 824 598.401 824 599.701C824 602.901 826.4 607.401 829.4 609.701C830.7 610.801 832.4 613.601 833 616.001C833.8 618.801 835.7 622.001 838.6 624.901C841 627.301 843 629.701 843 630.301C843 632.901 846.6 638.201 849.6 640.101C851.7 641.301 854 644.101 855.3 646.801C856.6 649.601 858.9 652.401 861 653.701C865.3 656.501 865.5 656.701 868.3 661.001C869.5 662.901 872.1 665.401 874 666.601C877.9 669.101 880.5 671.501 883.8 675.901C885 677.501 887.7 679.401 889.8 680.101C891.9 680.801 895.1 683.201 897.3 685.701C900.1 688.801 902.4 690.301 905.5 691.101C908.3 691.801 910.5 693.101 911.5 694.701C913.6 697.901 918.9 701.001 922.2 701.001C924 701.001 925.9 702.001 927.6 703.901C930.3 707.001 933.3 708.501 938.7 709.401C940.4 709.701 943.8 711.301 946.2 712.901C949 714.901 952.1 716.101 955.2 716.401C958 716.701 961.3 717.801 963.2 719.101C965.2 720.601 968.2 721.501 971.9 721.801C975 722.001 979.8 723.301 982.8 724.701C986.8 726.701 988.9 727.101 991.9 726.601C994.7 726.201 997.1 726.601 1000.5 728.101C1004.3 729.801 1006.4 730.101 1010.2 729.601C1013.8 729.101 1016.4 729.401 1019.6 730.601C1023.5 732.101 1024.8 732.101 1029.4 731.001C1034.1 729.901 1035.2 729.901 1038 731.401C1042.2 733.401 1042.8 733.401 1048.1 731.101C1051.9 729.401 1053.1 729.301 1056.8 730.301C1060.4 731.301 1061.8 731.201 1065.8 729.701C1068.5 728.601 1072.9 727.901 1076.2 728.001C1080.2 728.101 1083.1 727.501 1086.1 726.001C1088.8 724.601 1091.3 724.001 1093 724.401C1096.4 725.001 1102 723.501 1105.1 721.101C1106.5 720.001 1109.8 719.101 1113.1 718.801C1117.1 718.501 1119.6 717.601 1122.2 715.701C1124.1 714.201 1126.9 713.001 1128.4 713.001C1132.1 713.001 1137.1 710.801 1140.5 707.601C1142 706.201 1144.4 705.001 1145.7 705.001C1149.2 705.001 1154.9 702.101 1156.7 699.401C1157.6 698.001 1160.2 696.501 1163.6 695.501C1167.6 694.401 1169.7 693.001 1172 690.101C1174 687.701 1176.5 685.901 1179 685.101C1181.4 684.401 1184.2 682.401 1186.5 679.801C1188.4 677.501 1192.1 674.501 1194.7 673.101C1197.8 671.401 1200.2 669.101 1201.6 666.601C1202.9 664.401 1205.1 662.001 1206.7 661.201C1210.8 659.101 1213 656.901 1215.1 652.901C1216.1 650.801 1218.6 648.201 1220.6 646.901C1223 645.501 1225 643.001 1226.5 639.801C1227.8 637.101 1230.6 633.301 1232.9 631.401C1235.6 629.001 1237.3 626.501 1238 623.801C1238.7 621.401 1240.7 618.301 1243 616.101C1245.9 613.301 1247.1 611.301 1247.6 608.101C1248 605.601 1249.4 602.701 1250.8 601.101C1254.6 597.101 1255.7 594.901 1256.4 590.101C1256.8 587.301 1258.2 584.401 1260 582.401C1262.1 580.001 1263 577.601 1263.5 573.501C1263.9 570.301 1265.1 566.901 1266.3 565.401C1267.6 563.601 1268.5 560.801 1268.8 557.101C1269 554.001 1270.3 549.201 1271.7 546.201C1273.7 542.201 1274.1 540.101 1273.6 537.101C1273.2 534.301 1273.6 531.901 1275.1 528.501C1276.7 524.801 1277.1 522.601 1276.6 518.901C1276.1 515.601 1276.5 512.501 1277.6 509.001C1279 504.701 1279.1 503.301 1278 499.501C1276.9 495.601 1277 494.401 1278.5 490.401C1280.1 486.001 1280.1 485.701 1278.2 481.201C1276.4 477.101 1276.3 475.901 1277.3 472.201C1278.3 468.601 1278.2 467.101 1276.7 463.201C1275.6 460.501 1274.9 456.101 1275 452.801C1275.1 448.801 1274.5 445.901 1273 443.001C1271.8 440.701 1271 437.401 1271.1 435.701C1271.5 430.101 1271.1 428.401 1268.6 424.801C1267.1 422.501 1266.1 419.401 1265.8 415.701C1265.5 411.701 1264.6 409.201 1262.7 406.601C1261.2 404.701 1260 402.001 1260 400.501C1260 396.901 1257.8 391.901 1254.6 388.501C1253.2 387.001 1252 384.601 1252 383.301C1252 379.801 1249.1 374.101 1246.4 372.301C1245 371.401 1243.5 368.801 1242.5 365.401C1241.4 361.401 1240 359.301 1237.1 357.001C1234.7 355.001 1232.9 352.501 1232.1 350.001C1231.4 347.501 1229.4 344.801 1226.7 342.501C1224.4 340.601 1221.4 336.801 1220 334.301C1218.4 331.201 1216.1 328.801 1213.6 327.301C1211.4 326.101 1209 323.901 1208.2 322.301C1206.1 318.201 1203.9 316.001 1199.9 313.901C1197.8 312.901 1195.2 310.401 1193.9 308.401C1192.5 306.001 1190 304.001 1186.8 302.501C1184.1 301.201 1180.3 298.401 1178.4 296.101C1176 293.401 1173.5 291.701 1170.7 290.901C1168.2 290.201 1165.1 288.301 1162.8 285.901C1160.1 283.101 1157.9 281.801 1154.9 281.401C1152.2 280.901 1149.3 279.401 1146.5 277.001C1143.4 274.301 1141 273.101 1137.4 272.601C1134.3 272.201 1131.7 271.101 1130 269.501C1127.6 267.301 1119.5 264.601 1117.9 265.601C1117.5 265.801 1115 264.701 1112.4 263.001C1108.9 260.801 1106.4 260.001 1103.1 260.001C1100.1 260.001 1096.7 259.101 1093.5 257.401C1089.5 255.401 1087.6 255.001 1084 255.401C1080.5 255.901 1078.5 255.501 1075.5 253.901C1072.3 252.301 1070.4 252.001 1066 252.401C1062.5 252.801 1058.8 252.501 1055.6 251.501C1051.8 250.301 1049.9 250.301 1046.4 251.101C1043.3 251.901 1041.2 251.901 1038.9 251.101C1034.6 249.601 1030.9 249.701 1026.9 251.401C1024.2 252.501 1022.5 252.601 1018.8 251.801C1014.9 250.901 1013.3 251.001 1009.3 252.501C1006.4 253.601 1002.4 254.301 999 254.101C995.1 254.001 992.4 254.501 989.8 256.001C987.3 257.301 984.1 258.001 980.8 258.001C976.9 258.001 974.4 258.701 971.5 260.501C968.8 262.101 966 262.901 962.9 263.001C959.4 263.001 957.3 263.701 954.1 266.001C951.8 267.701 949.5 268.801 949 268.501C947.5 267.601 934 232.401 934 229.301C934 227.601 931.6 219.601 928.6 211.401L923.3 196.501L912.3 196.001L901.4 195.501L898.1 191.701C895.5 188.801 891.3 178.901 878.9 145.901C870.1 122.701 861.4 101.201 859.5 98.1008C857.4 94.7008 855.9 90.9008 855.7 88.6008L855.5 84.8008L874.9 75.8008C893.4 67.1008 894.4 66.8008 896.9 68.2008C898.6 69.2008 900.4 69.4008 902 68.9008C906.1 67.7008 906.5 67.8008 913.3 73.0008C919.3 77.5008 920.5 78.0008 926.7 78.6008L933.5 79.2008L937.8 74.8008C940.1 72.4008 942.2 69.3008 942.5 68.1008C943.1 64.8008 943.2 64.8008 948.1 66.5008C951.6 67.8008 952.9 67.8008 954.8 66.9008C957.8 65.2008 966.3 67.9008 974.8 73.1008C978.3 75.2008 981.3 77.0008 981.5 77.0008C981.7 77.0008 982.8 75.6008 984 73.9008L986.2 70.9008L983.9 68.4008C980.4 64.6008 973.1 60.4008 966.8 58.4008C962.2 57.0008 960.9 56.1008 960.1 53.8008C959.6 52.3008 957.7 49.0008 956 46.5008L952.9 41.9008L955.8 38.5008C960.1 33.7008 960.8 28.2008 957.9 22.4008C956.3 18.9008 954.7 17.3008 951.6 15.9008C944.2 12.5008 943.5 12.7008 924.8 24.7008C916.4 30.0008 904.9 35.6008 879.7 46.5008C847.4 60.6008 845.9 61.2008 844 59.5008C842.5 58.2008 841.2 58.0008 837.8 58.5008C832.6 59.3008 823.4 63.5008 822.7 65.4008C822.4 66.2008 824.6 74.6008 827.6 84.1008C832.3 98.7008 833.2 103.001 833.5 110.501C833.7 115.401 834 120.801 834.2 122.401L834.5 125.401L805 132.701C788.8 136.701 708.3 156.701 626.2 177.101C544.1 197.501 476.3 214.001 475.5 213.701C474 213.101 472.4 206.801 473.4 205.101C473.7 204.601 476.3 203.401 479 202.501L484 200.801V195.401C484 189.301 483.9 189.201 476.4 191.501C468.9 193.801 467.3 193.501 466.1 189.701C465.6 188.001 454.4 149.901 441.4 105.101C423.3 42.9008 418.1 23.6008 419 23.0008C421.1 21.7008 447.4 20.7008 467.6 21.3008C481.4 21.6008 489.3 22.3008 496.8 23.9008C512.5 27.1008 516.9 26.6008 515.6 21.7008C514.2 16.1008 502.2 11.8008 482.3 9.60077C472.1 8.40077 458.1 8.00077 433.1 8.00077C405 8.00077 394.3 7.60077 378.8 6.00077C368.2 4.90077 358.8 3.70077 358 3.50077C355.4 2.70077 329.7 0.000770329 325 0.000770329C322.5 0.10077 318.7 1.00077 316.6 2.00077ZM814.6 164.501C814.3 165.401 760.4 232.001 694.8 312.601L575.5 459.201L572 458.601C570.1 458.301 566 457.601 563 457.001C560 456.401 556.7 455.901 555.8 455.901C554.8 455.901 552.9 455.901 551.5 455.901C550.1 455.901 548.4 455.901 547.8 455.801C547.1 455.701 545.5 456.001 544.3 456.401C542.5 457.001 541.8 456.501 540.7 454.301C538.1 449.001 483.7 246.901 484.6 246.001C485.1 245.501 537.7 231.901 601.5 215.901C665.3 199.901 738.4 181.401 764 175.001C789.6 168.501 811.6 163.101 812.9 163.101C814.6 163.001 815.1 163.401 814.6 164.501ZM486.6 354.901C501.7 408.501 514 453.501 514 455.001C514 456.401 514.7 458.501 515.5 459.601C517.4 462.101 517.5 467.001 515.5 467.001C514.7 467.001 513.3 468.101 512.4 469.501C511.5 470.901 509.8 472.301 508.6 472.601C507.4 472.901 505.7 474.401 504.8 476.001C503.9 477.701 502.4 479.001 501.7 479.001C500.9 479.001 499.9 480.101 499.6 481.501C499.2 482.901 497.9 484.701 496.5 485.601C495 486.601 494 488.201 494 489.601C494 490.901 493.1 492.401 492 493.001C490.7 493.701 490 495.101 490 496.901C490 498.501 489.4 500.301 488.6 501.001C487.8 501.601 487 503.601 486.8 505.301C486.6 507.301 485.9 508.601 484.9 508.801C483.6 509.001 483.1 507.801 482.5 503.301C482.1 500.101 481.8 495.901 482 494.001C482.1 492.101 482.1 488.201 482.1 485.501C482 482.701 482 477.001 482 472.801C482 468.501 481.4 463.101 480.6 460.801C479.8 458.401 479.2 454.201 479.3 451.401C479.3 447.901 478.8 445.301 477.5 443.401C476.3 441.501 475.6 438.501 475.5 434.501C475.4 429.801 474.8 427.601 473.1 425.101C471.6 423.001 470.6 420.001 470.4 416.901C470 411.801 468.2 407.201 465.6 405.101C464.7 404.301 464 402.201 464 400.301C464 396.101 461.7 391.001 458.4 387.901C457 386.501 456 384.501 456 382.801C456 379.101 453.7 374.701 450.6 372.301C449.3 371.201 447.6 368.401 447 366.001C446.2 363.101 444.3 360.101 441.5 357.301C439.1 355.001 436.9 351.801 436.5 350.301C435.8 347.001 433.6 344.301 429.3 341.201C427.6 340.001 425.6 337.401 425 335.501C423.8 332.001 419.5 327.601 416.1 326.501C415 326.201 413.8 325.001 413.4 323.801C413.1 322.701 411 319.801 408.8 317.401L404.8 313.101L407.2 310.201C414.7 300.901 456.7 257.001 457.9 257.201C458.8 257.401 468.1 289.101 486.6 354.901ZM256.5 303.001C281.2 305.001 304.6 311.601 326.5 322.601C340.2 329.401 354.5 338.701 354.5 340.801C354.5 342.301 256.1 448.001 254.7 448.001C254.1 448.001 252.9 447.301 251.9 446.401C250.5 445.201 249.7 445.101 248 446.001C246.3 446.901 245.4 446.801 243.6 445.601C241.5 444.301 241 444.301 239 445.701C237.3 446.901 236.3 447.001 234.5 446.201C232.6 445.301 231.9 445.501 230.4 447.101C229.1 448.501 227.9 448.901 226 448.501C223.8 448.001 222.9 448.401 221.6 450.501C220.4 452.301 219.3 452.901 218 452.501C216.6 452.101 215.7 452.701 214.6 454.901C213.7 456.601 212.1 458.001 210.8 458.201C209.4 458.401 208.4 459.401 208 461.001C207.7 462.401 206.4 463.901 205.2 464.501C203.7 465.201 203 466.301 203 468.201C203 469.901 202.2 471.301 201 472.001C199.7 472.701 199 474.101 199 476.201C199 477.901 198.3 480.101 197.4 481.101C196.2 482.401 196.1 483.301 196.9 484.901C197.7 486.301 197.7 487.601 196.8 489.501C195.9 491.601 195.9 492.601 196.8 494.101C197.5 495.201 197.7 497.201 197.4 498.601C197 500.201 197.3 501.701 198.4 502.901C199.5 504.101 199.9 505.601 199.5 507.201C199 509.101 199.4 510.001 201.4 511.401C203 512.401 204 514.001 204 515.401C204 516.801 204.9 518.101 206.4 518.801C207.8 519.401 209 520.901 209.2 522.201C209.4 523.601 210.4 524.601 212 525.001C213.4 525.301 214.9 526.501 215.5 527.701C216 529.001 217.5 530.001 219 530.201C221.8 530.501 221.7 530.301 220.4 543.701C219.7 550.901 219.7 551.001 222.4 552.001C227.9 554.101 265.7 552.301 268.6 549.901C270.8 548.101 272.5 550.201 271.1 552.801C270.4 554.201 270.3 555.101 271 555.501C271.5 555.801 272 557.301 272 558.701C272 560.201 272.7 562.201 273.6 563.201C275.2 564.901 275.1 565.201 271.6 568.401C263.6 576.001 232.8 592.701 228.8 591.701C225.9 590.901 220.3 592.801 216.5 595.801C214.1 597.701 212.8 598.101 209.8 597.601C207.3 597.201 206 597.401 206 598.101C206 598.701 208.1 603.201 210.6 608.101C214.4 615.501 216 617.501 219.5 619.601C224.3 622.401 236 625.201 237.4 623.901C237.9 623.501 238.4 619.901 238.6 615.901C238.8 612.001 239.4 608.201 240 607.501C240.8 606.501 240.8 605.601 239.9 604.201C237.5 600.401 239.4 597.701 247.2 594.201C253.7 591.301 266.2 583.701 286 570.801C289.6 568.401 293.9 565.001 295.5 563.101C298.1 560.101 298.5 559.001 298.4 553.801C298.3 548.501 298 547.601 295 544.501C293.1 542.601 291.1 541.001 290.6 541.001C290 541.001 287.2 539.401 284.5 537.401C281.7 535.401 277.3 532.701 274.7 531.401C270.9 529.401 269.9 528.501 270.2 526.701C270.4 525.101 271.3 524.401 273.3 524.201C275.4 523.901 276 523.301 276 521.501C276 519.801 276.9 518.601 279 517.501C281.5 516.201 281.9 515.501 281.4 513.601C280.2 508.601 281.1 508.601 342.2 515.101C373.7 518.401 400.5 521.301 401.7 521.501C402.9 521.801 404.6 523.601 405.7 525.701C408 530.401 412.4 533.001 419.5 533.701C424.4 534.201 425 534.501 425 536.601C425 541.001 417.9 560.501 411.5 573.501C405.2 586.301 393.6 605.001 391.9 605.001C391.4 605.001 389.8 606.901 388.4 609.301C385.2 614.501 370.9 629.201 361.5 636.901C351.2 645.401 337 654.501 324.5 660.601C253.8 694.901 169.6 681.901 112.5 627.801C42.8 561.801 33.8 454.301 91.5 377.601C123.5 335.001 173.4 307.501 226.6 303.101C240.8 301.901 243.1 301.901 256.5 303.001ZM1069 305.101C1140.5 316.901 1199.2 369.301 1219.5 439.501C1224.6 457.101 1226.2 469.801 1226.2 491.001C1226.2 506.401 1225.8 512.901 1224.2 522.001C1217 562.001 1200.1 594.701 1172 623.101C1158.7 636.501 1148.5 644.601 1133.5 653.601C1089.3 679.901 1033.4 686.601 983.3 671.401C952.5 662.101 928.7 647.601 905 624.001C876.1 595.101 859.2 562.801 851.8 522.001C848.9 505.701 848.9 476.301 851.8 460.001C857.1 430.601 867.8 405.001 884.8 381.001C897.7 362.701 933.8 329.901 937.5 333.001C938.2 333.601 954.8 374.201 974.4 423.301C994 472.401 1010.4 513.001 1010.8 513.701C1011.4 514.601 1014 514.001 1021 511.501C1027.7 509.001 1032.3 508.001 1036.5 508.001C1043 507.901 1046.6 506.401 1052.2 501.501C1055.5 498.501 1055.6 498.301 1055 492.001C1054 480.101 1047.6 473.801 1037.1 474.201C1032.7 474.301 1031.4 474.001 1030.4 472.401C1028 468.701 970.9 316.801 971.4 315.501C972.1 313.701 988.8 308.501 1002.4 305.901C1024.7 301.601 1046.1 301.401 1069 305.101ZM378.6 361.201C397.7 381.101 412.3 405.101 421 431.001C424.5 441.401 428.3 457.701 427.6 458.901C427.3 459.301 427.7 461.801 428.5 464.401C430.2 469.801 431.6 495.901 430.6 501.301C430 504.801 429.7 505.001 426.2 505.001C422.3 505.001 297.5 492.401 292.5 491.501C288.4 490.701 285.4 486.601 286.8 483.501C287.7 481.601 287.5 480.901 285.9 479.401C284.5 478.101 284.1 476.901 284.5 474.901C285 472.701 284.7 471.901 283 471.001C281.3 470.101 281 469.201 281.4 467.401C282 465.301 281.6 464.701 278.5 463.401C276.5 462.601 275 461.301 275 460.301C275 459.401 274.2 457.801 273.3 456.801C271.7 455.001 271.9 454.701 277.2 449.201C280.2 446.101 301.5 423.201 324.6 398.501C365.3 354.701 367.8 352.001 369.1 352.001C369.4 352.001 373.7 356.201 378.6 361.201Z" fill="white"/>
</svg>
