<svg width="42" height="42" viewBox="0 0 42 42" fill="none" xmlns="http://www.w3.org/2000/svg">
<rect width="42" height="42" rx="9" fill="#DD8604"/>
<path d="M34.9452 13.2092C33.9127 13.6628 32.8102 13.9719 31.6495 14.113C32.8324 13.4005 33.7424 12.2774 34.1729 10.9373C33.0634 11.5846 31.8338 12.0558 30.5248 12.3182C29.4796 11.1997 27.9898 10.5 26.3355 10.5C23.1658 10.5 20.5958 13.0693 20.5958 16.2344C20.5958 16.6893 20.6483 17.1266 20.7439 17.5453C15.9724 17.3202 11.7435 15.0297 8.91324 11.5671C8.41509 12.4091 8.13628 13.3876 8.13628 14.4536C8.13628 16.4479 9.15123 18.2007 10.6888 19.2305C9.74738 19.2002 8.86192 18.9413 8.08963 18.5121V18.5833C8.08963 21.3648 10.0647 23.6844 12.6931 24.2127C12.2113 24.3422 11.7027 24.4122 11.1812 24.4122C10.8149 24.4122 10.4637 24.3772 10.1125 24.3119C10.8487 26.5896 12.9649 28.2503 15.4836 28.297C13.5237 29.8352 11.04 30.7519 8.36494 30.7519C7.90996 30.7519 7.45616 30.7251 7 30.6737C9.55372 32.2995 12.5624 33.25 15.8161 33.25C26.3787 33.25 32.1476 24.5078 32.1476 16.9389C32.1476 16.6951 32.1476 16.449 32.1301 16.2041C33.2512 15.4006 34.23 14.3848 35 13.2325L34.9452 13.2092Z" fill="white"/>
</svg>
